<svg xmlns="http://www.w3.org/2000/svg" width="512" height="512" viewBox="0 0 512 512">
  <rect width="512" height="512" fill="#4CAF50" rx="64" ry="64" />
  <circle cx="256" cy="256" r="200" fill="#FFFFFF" opacity="0.9" />
  <g transform="translate(128, 128) scale(0.5)">
    <path fill="#4CAF50" d="M144,72h224c39.76,0,72,32.24,72,72v224c0,39.76-32.24,72-72,72H144c-39.76,0-72-32.24-72-72V144 C72,104.24,104.24,72,144,72z" />
    <g fill="#FFFFFF">
      <circle cx="256" cy="184" r="40" />
      <path d="M256,288c-24,0-48,12-48,36v48h96v-48C304,300,280,288,256,288z" />
      <path d="M352,144h-48c-8.84,0-16,7.16-16,16s7.16,16,16,16h48c8.84,0,16-7.16,16-16S360.84,144,352,144z" />
      <path d="M208,144h-48c-8.84,0-16,7.16-16,16s7.16,16,16,16h48c8.84,0,16-7.16,16-16S216.84,144,208,144z" />
      <path d="M304,352h-96c-8.84,0-16,7.16-16,16s7.16,16,16,16h96c8.84,0,16-7.16,16-16S312.84,352,304,352z" />
    </g>
  </g>
</svg> 